<svg xmlns="http://www.w3.org/2000/svg" xmlns:xlink="http://www.w3.org/1999/xlink" width="128" zoomAndPan="magnify" viewBox="0 0 96 95.999999" height="128" preserveAspectRatio="xMidYMid meet" version="1.0"><defs><clipPath id="64895acecc"><path d="M 1.308594 0 L 95.058594 0 L 95.058594 95.964844 L 1.308594 95.964844 Z M 1.308594 0 " clip-rule="nonzero"/></clipPath></defs><g clip-path="url(#64895acecc)"><path fill="#000000" d="M 11.757812 41.402344 C 12.597656 43.285156 13.722656 45.054688 15.136719 46.640625 C 18.648438 50.566406 23.4375 52.941406 28.675781 53.363281 C 28.878906 53.421875 29.097656 53.453125 29.320312 53.453125 L 68.453125 53.453125 C 68.613281 53.453125 69.328125 53.339844 70.195312 53.179688 C 70.394531 53.144531 70.542969 53.347656 70.453125 53.527344 C 68.675781 57.097656 67.679688 61.082031 67.679688 65.222656 C 67.679688 72.304688 70.449219 78.960938 75.484375 83.972656 C 77.953125 86.410156 80.90625 88.351562 84.066406 89.664062 C 84.390625 89.800781 84.605469 90.109375 84.605469 90.460938 C 84.605469 90.933594 84.21875 91.320312 83.742188 91.320312 L 47.582031 91.320312 C 27.796875 91.320312 11.757812 75.355469 11.757812 55.667969 Z M 70.800781 52.851562 C 70.800781 52.851562 70.796875 52.855469 70.796875 52.855469 C 70.769531 52.859375 70.769531 52.859375 70.800781 52.851562 Z M 14.722656 32.25 C 15.203125 24.566406 21.375 18.324219 29.082031 17.730469 C 35.105469 17.265625 40.742188 20.1875 43.796875 25.351562 C 44.71875 26.898438 46.355469 27.824219 48.179688 27.824219 L 48.183594 27.824219 C 50.007812 27.824219 51.644531 26.898438 52.5625 25.351562 C 55.621094 20.1875 61.273438 17.273438 67.289062 17.730469 C 74.832031 18.316406 80.988281 24.414062 81.613281 31.914062 C 82.300781 40.191406 75.792969 47.699219 67.550781 48.808594 C 67.496094 48.816406 67.480469 48.816406 67.488281 48.808594 L 29.808594 48.808594 C 29.691406 48.785156 29.574219 48.769531 29.449219 48.761719 C 25.261719 48.53125 21.417969 46.679688 18.625 43.554688 C 15.847656 40.445312 14.460938 36.429688 14.722656 32.25 Z M 46.070312 4.609375 L 50.292969 4.609375 C 60.042969 4.609375 68.847656 8.683594 75.101562 15.203125 C 72.820312 14.054688 70.304688 13.308594 67.648438 13.101562 C 59.832031 12.5 52.515625 16.285156 48.539062 22.992188 C 48.359375 23.304688 48.003906 23.304688 47.816406 22.992188 C 43.847656 16.289062 36.511719 12.503906 28.722656 13.101562 C 26.070312 13.304688 23.566406 14.035156 21.296875 15.167969 C 27.546875 8.667969 36.335938 4.609375 46.070312 4.609375 Z M 84.605469 45.628906 L 84.605469 84.828125 C 82.472656 83.777344 80.488281 82.371094 78.78125 80.683594 C 74.628906 76.550781 72.347656 71.0625 72.347656 65.222656 C 72.347656 56.875 77.191406 49.273438 84.605469 45.628906 Z M 11.664062 20.550781 C 8.75 25.980469 7.09375 32.179688 7.09375 38.753906 L 7.09375 55.664062 C 7.09375 77.886719 25.253906 95.964844 47.582031 95.964844 L 86.9375 95.964844 C 88.226562 95.964844 89.269531 94.925781 89.269531 93.640625 L 89.269531 38.753906 C 89.269531 32.179688 87.613281 25.980469 84.699219 20.550781 C 90.5 19.914062 95.027344 15.011719 95.027344 9.074219 L 95.027344 7.273438 C 95.027344 5.992188 93.980469 4.949219 92.695312 4.949219 C 91.40625 4.949219 90.359375 5.992188 90.359375 7.273438 L 90.359375 9.074219 C 90.359375 12.878906 87.25 15.976562 83.421875 15.976562 L 81.816406 15.976562 C 74.722656 6.28125 63.238281 -0.0351562 50.292969 -0.0351562 L 46.070312 -0.0351562 C 33.125 -0.0351562 21.640625 6.28125 14.546875 15.976562 L 12.941406 15.976562 C 9.113281 15.976562 6 12.878906 6 9.074219 L 6 7.273438 C 6 5.992188 4.957031 4.949219 3.667969 4.949219 C 2.378906 4.949219 1.335938 5.992188 1.335938 7.273438 L 1.335938 9.074219 C 1.335938 15.011719 5.863281 19.914062 11.664062 20.550781 " fill-opacity="1" fill-rule="nonzero"/></g><path fill="#000000" d="M 67.488281 48.808594 L 67.550781 48.808594 C 67.6875 48.75 67.507812 48.792969 67.488281 48.808594 " fill-opacity="1" fill-rule="nonzero"/><path fill="#000000" d="M 47.578125 46.246094 C 47.847656 46.703125 48.515625 46.703125 48.785156 46.246094 L 52.398438 40.097656 C 52.5625 39.820312 52.511719 39.464844 52.277344 39.238281 L 48.660156 35.847656 C 48.390625 35.59375 47.96875 35.59375 47.699219 35.847656 L 44.085938 39.238281 C 43.847656 39.464844 43.796875 39.820312 43.964844 40.097656 L 47.578125 46.246094 " fill-opacity="1" fill-rule="nonzero"/><path fill="#000000" d="M 64.953125 41.277344 C 70.070312 41.179688 74.121094 36.910156 74.121094 31.816406 L 74.121094 30.6875 C 74.121094 30.113281 73.65625 29.652344 73.078125 29.652344 L 70.496094 29.652344 C 69.917969 29.652344 69.453125 30.113281 69.453125 30.6875 L 69.453125 31.867188 C 69.453125 34.472656 67.308594 36.675781 64.691406 36.632812 C 62.144531 36.589844 60.089844 34.515625 60.089844 31.972656 L 60.089844 30.6875 C 60.089844 30.113281 59.621094 29.652344 59.046875 29.652344 L 56.460938 29.652344 C 55.886719 29.652344 55.421875 30.113281 55.421875 30.6875 L 55.421875 31.972656 C 55.421875 37.164062 59.714844 41.375 64.953125 41.277344 " fill-opacity="1" fill-rule="nonzero"/><path fill="#000000" d="M 31.773438 41.277344 C 36.890625 41.179688 40.941406 36.910156 40.941406 31.816406 L 40.941406 30.6875 C 40.941406 30.113281 40.476562 29.652344 39.902344 29.652344 L 37.3125 29.652344 C 36.738281 29.652344 36.273438 30.113281 36.273438 30.6875 L 36.273438 31.867188 C 36.273438 34.476562 34.128906 36.679688 31.507812 36.632812 C 28.960938 36.589844 26.90625 34.515625 26.90625 31.972656 L 26.90625 30.6875 C 26.90625 30.113281 26.441406 29.652344 25.867188 29.652344 L 23.28125 29.652344 C 22.707031 29.652344 22.242188 30.113281 22.242188 30.6875 L 22.242188 31.972656 C 22.242188 37.164062 26.535156 41.375 31.773438 41.277344 " fill-opacity="1" fill-rule="nonzero"/></svg>